<?xml version="1.0" standalone="no"?><!DOCTYPE svg PUBLIC "-//W3C//DTD SVG 1.1//EN" "http://www.w3.org/Graphics/SVG/1.1/DTD/svg11.dtd"><svg t="1552474065550" class="icon" style="" viewBox="0 0 1024 1024" version="1.1" xmlns="http://www.w3.org/2000/svg" p-id="2509" xmlns:xlink="http://www.w3.org/1999/xlink" width="200" height="200"><defs><style type="text/css"></style></defs><path d="M836.45483398 141.21142578c13.27423096 0 24.34844947 4.32586646 33.13366699 13.1852417C878.35394287 163.25109864 882.7935183 174.27093506 882.7935183 187.55999756c0 12.9776001-4.48901344 23.99743653-13.36816429 32.85681176L577.51092529 512l291.91442872 291.47936988c8.87915016 8.85937523 13.3681643 19.87921166 13.36816429 32.96063256 0 13.1852417-4.43957543 24.30889893-13.20007323 33.06445336-8.79016089 8.85443115-19.86438012 13.28411842-33.13861109 13.28411842-13.07153344 0-24.02215553-4.53350806-32.95074438-13.49670411L512 577.50598121l-291.5040896 291.78588891c-8.90881324 8.96319604-19.87426758 13.49670411-32.96063184 13.4967041-13.2643435 0-24.31878638-4.42968727-33.14355517-13.2890625C145.6262815 860.74890136 141.21636987 849.62524414 141.21636987 836.44000244c0-13.08142089 4.45935035-24.10125732 13.36816358-32.96063256L446.47918725 512 154.58453345 220.41186523C145.67572021 211.56237817 141.21636987 200.53759766 141.21636987 187.56494164c0-13.2890625 4.40991234-24.30889893 13.17535352-33.16333008C163.21649146 145.53729224 174.26599097 141.21142578 187.53527856 141.21142578c13.08142089 0 24.05181861 4.42968727 32.96063184 13.38793922L512.00494408 446.39514136l291.50408889-291.78588819C812.43267846 145.63616968 823.37835718 141.21142578 836.45483398 141.21142578" p-id="2510" fill="#adadad"></path></svg>