<?xml version="1.0" standalone="no"?><!DOCTYPE svg PUBLIC "-//W3C//DTD SVG 1.1//EN" "http://www.w3.org/Graphics/SVG/1.1/DTD/svg11.dtd"><svg t="1552109821180" class="icon" style="" viewBox="0 0 1024 1024" version="1.1" xmlns="http://www.w3.org/2000/svg" p-id="1479" xmlns:xlink="http://www.w3.org/1999/xlink" width="200" height="200"><defs><style type="text/css"></style></defs><path d="M865.28 260.608H187.904c-18.432 0-33.28-14.848-33.28-33.28s14.848-33.28 33.28-33.28H865.28c18.432 0 33.28 14.848 33.28 33.28s-14.848 33.28-33.28 33.28zM865.28 527.36H187.904c-18.432 0-33.28-14.848-33.28-33.28s14.848-33.28 33.28-33.28H865.28c18.432 0 33.28 14.848 33.28 33.28s-14.848 33.28-33.28 33.28zM865.28 821.76H187.904c-18.432 0-33.28-14.848-33.28-33.28s14.848-33.28 33.28-33.28H865.28c18.432 0 33.28 14.848 33.28 33.28s-14.848 33.28-33.28 33.28z" p-id="1480" fill="#a1a1a1"></path></svg>